# xmcd
#
# Track frame offsets:
#	150
#	22767
#	36832
#	52254
#	76773
#	90693
#	106998
#	122007
#	138241
#	165505
#	185232
#	202853
#	225861
#	246400
#	262394
#	278527
#
# Disc length: 4016 seconds
#
# Revision: 0
# Processed by: cddbd v1.5.2PL0 Copyright (c) Steve Scherf et al.
# Submitted via: EasyCDDAExtractor 11.0.2.1
#
DISCID=d20fae10
DTITLE=Euskefeurat - Lurv
DYEAR=2008
DGENRE=Blues
TTITLE0=Gråtvals
TTITLE1=Åh, lönsamhet
TTITLE2=Sankte Per
TTITLE3=Gode Gud i himmelen
TTITLE4=75-års Renault
TTITLE5=Säg haver ni hört
TTITLE6=Littorin Humpa
TTITLE7=Far min
TTITLE8=Flyktingarna
TTITLE9=Husvagnblues
TTITLE10=Evert stod på lagårdsbacken
TTITLE11=När jag en gång dör
TTITLE12=Leonard Larssons testamente
TTITLE13=Hem till Altersbruk
TTITLE14=Vöre vale
TTITLE15=Spela Creedence
EXTD=
EXTT0=
EXTT1=
EXTT2=
EXTT3=
EXTT4=
EXTT5=
EXTT6=
EXTT7=
EXTT8=
EXTT9=
EXTT10=
EXTT11=
EXTT12=
EXTT13=
EXTT14=
EXTT15=
PLAYORDER=
